# Blender v2.79 (sub 0) OBJ File: 'arrowblend.blend'
# www.blender.org
mtllib arrow_bulb.mtl
o ArrowBulb_Cube
v -0.998131 0.166237 -0.211255
v -0.998131 -0.991548 -0.211255
v -0.998131 -0.991548 0.210145
v -0.998131 0.166237 0.210145
v 0.961869 0.166237 -0.211255
v 0.961869 -0.991548 -0.211255
v 0.961869 -0.991548 0.210145
v 0.961869 0.166237 0.210145
v -0.998437 0.042299 0.999424
v 0.961563 0.042299 0.999424
v -0.998437 0.338181 0.685620
v 0.961563 0.338181 0.685620
v -0.998437 -0.259823 0.706695
v 0.961563 -0.259823 0.706694
v -0.998437 0.036058 0.392891
v 0.961563 0.036058 0.392891
v 0.961563 0.725314 0.283396
v -0.998437 0.725314 0.283396
v -0.998437 0.423191 -0.009333
v 0.961563 0.423191 -0.009333
v 0.961563 1.003199 -0.005321
v -0.998437 1.003199 -0.005321
v -0.998437 0.701076 -0.298050
v 0.961563 0.701076 -0.298051
v 0.961563 -0.310146 -0.699005
v -0.998437 -0.310146 -0.699005
v 0.961563 -0.032261 -0.987723
v -0.998437 -0.032261 -0.987723
vn -1.0000 0.0000 0.0000
vn 1.0000 -0.0000 0.0000
vn -0.0000 -0.0000 -1.0000
vn -0.0000 -1.0000 0.0000
vn 0.0000 0.0000 1.0000
vn 0.0000 1.0000 -0.0000
vn 0.0000 0.7276 0.6860
vn -0.0000 -0.7276 -0.6860
vn 0.0000 -0.6959 0.7182
vn 0.0000 0.7205 0.6935
vn -0.0000 -0.7205 -0.6935
vn -0.0000 0.6959 -0.7182
vn -0.0000 0.6851 -0.7285
vn 0.0000 -0.6851 0.7285
usemtl Material.001
s off
f 1//1 2//1 3//1 4//1
f 5//2 8//2 7//2 6//2
f 1//3 5//3 6//3 2//3
f 2//4 6//4 7//4 3//4
f 3//5 7//5 8//5 4//5
f 5//6 1//6 4//6 8//6
f 9//7 10//7 12//7 11//7
f 15//1 11//1 18//1 19//1
f 15//8 16//8 14//8 13//8
f 13//9 14//9 10//9 9//9
f 11//1 15//1 13//1 9//1
f 16//2 12//2 10//2 14//2
f 17//2 20//2 24//2 21//2
f 12//2 16//2 20//2 17//2
f 11//10 12//10 17//10 18//10
f 16//11 15//11 19//11 20//11
f 22//12 21//12 24//12 23//12
f 18//10 17//10 21//10 22//10
f 19//1 23//1 28//1 26//1
f 19//1 18//1 22//1 23//1
f 25//11 26//11 28//11 27//11
f 23//13 24//13 27//13 28//13
f 20//14 19//14 26//14 25//14
f 24//2 20//2 25//2 27//2
